<svg width="19" height="19" viewBox="0 0 19 19" fill="none" xmlns="http://www.w3.org/2000/svg">
<path d="M17.1 8.07516H9.65837V11.0043H14.0125C13.9334 11.7168 13.4584 12.8252 12.4292 13.5377C11.7959 14.0127 10.8459 14.3293 9.65837 14.3293C7.60003 14.3293 5.7792 12.9835 5.14587 11.0043C4.98753 10.5293 4.90837 9.97516 4.90837 9.421C4.90837 8.86683 4.98753 8.31266 5.14587 7.83766C5.22503 7.67933 5.22503 7.521 5.3042 7.44183C6.0167 5.77933 7.6792 4.59183 9.65837 4.59183C11.1625 4.59183 12.1125 5.22516 12.7459 5.77933L14.9625 3.56266C13.6167 2.37516 11.7959 1.5835 9.65837 1.5835C6.57087 1.5835 3.8792 3.32516 2.61253 5.93766C2.05837 7.046 1.7417 8.2335 1.7417 9.50016C1.7417 10.7668 2.05837 11.9543 2.61253 13.0627C3.8792 15.6752 6.57087 17.4168 9.65837 17.4168C11.7959 17.4168 13.6167 16.7043 14.8834 15.5168C16.3875 14.171 17.2584 12.1127 17.2584 9.6585C17.2584 9.02516 17.1792 8.55016 17.1 8.07516Z" stroke="white" stroke-width="1.5" stroke-miterlimit="10" stroke-linecap="round" stroke-linejoin="round"/>
</svg>
