<svg width="159" height="52" viewBox="0 0 159 52" fill="none" xmlns="http://www.w3.org/2000/svg">
<path d="M30.506 39.96C32.186 39.96 33.426 39.8133 34.226 39.52C35.026 39.2533 35.5594 38.7867 35.826 38.12C36.1194 37.4533 36.266 36.4533 36.266 35.12V27.12C36.266 25.92 36.026 24.9867 35.546 24.32C35.0927 23.6267 34.2927 23.28 33.146 23.28C32.106 23.28 31.3327 23.6267 30.826 24.32C30.346 24.9867 30.106 25.8533 30.106 26.92C30.106 27.88 30.346 28.6133 30.826 29.12C31.306 29.6 32.0927 29.84 33.186 29.84H37.866L39.706 29.52H44.226L44.546 32.8L44.226 36H33.186C30.5193 36 28.426 35.24 26.906 33.72C25.4127 32.1733 24.666 30.0267 24.666 27.28C24.666 25.28 25.026 23.5333 25.746 22.04C26.466 20.52 27.466 19.3467 28.746 18.52C30.026 17.6933 31.4927 17.28 33.146 17.28C34.8794 17.28 36.4127 17.6933 37.746 18.52C39.106 19.32 40.146 20.48 40.866 22C41.6127 23.52 41.986 25.28 41.986 27.28V35.12C41.986 37.3067 41.5994 39.24 40.826 40.92C40.0527 42.6267 38.8127 43.9733 37.106 44.96C35.3994 45.9467 33.1994 46.44 30.506 46.44H25.546V39.96H30.506ZM43.7941 29.52H52.1541L52.5141 32.64L52.1541 36H43.7941V29.52ZM51.7238 29.52H60.0838L60.4438 32.64L60.0838 36H51.7238V29.52ZM59.6535 29.52H68.0135L68.3735 32.64L68.0135 36H59.6535V29.52ZM67.5832 29.52H75.9432L76.3032 32.64L75.9432 36H67.5832V29.52ZM94.9129 12.92L84.9129 17.44L89.8729 22.52C91.4729 24.1733 92.2996 26.08 92.3529 28.24C92.4062 30.3733 91.7129 32.2 90.2729 33.72C88.8329 35.24 86.8862 36 84.4329 36H75.5129V29.52H84.5929C85.1529 29.52 85.5796 29.4 85.8729 29.16C86.1929 28.8933 86.3262 28.5467 86.2729 28.12C86.2462 27.6933 86.0329 27.28 85.6329 26.88L78.7129 19.8L79.9929 12.64L92.6329 7L94.9129 12.92ZM80.5529 8L90.3529 3.72L91.1529 5.76L80.3129 10.48L80.5529 8ZM100.975 39.96C102.655 39.96 103.895 39.8133 104.695 39.52C105.495 39.2533 106.028 38.7867 106.295 38.12C106.588 37.4533 106.735 36.4533 106.735 35.12V27.12C106.735 25.92 106.495 24.9867 106.015 24.32C105.561 23.6267 104.761 23.28 103.615 23.28C102.575 23.28 101.801 23.6267 101.295 24.32C100.815 24.9867 100.575 25.8533 100.575 26.92C100.575 27.88 100.815 28.6133 101.295 29.12C101.775 29.6 102.561 29.84 103.655 29.84H108.335L110.175 29.52H114.695L115.015 32.8L114.695 36H103.655C100.988 36 98.8948 35.24 97.3748 33.72C95.8814 32.1733 95.1348 30.0267 95.1348 27.28C95.1348 25.28 95.4948 23.5333 96.2148 22.04C96.9348 20.52 97.9348 19.3467 99.2148 18.52C100.495 17.6933 101.961 17.28 103.615 17.28C105.348 17.28 106.881 17.6933 108.215 18.52C109.575 19.32 110.615 20.48 111.335 22C112.081 23.52 112.455 25.28 112.455 27.28V35.12C112.455 37.3067 112.068 39.24 111.295 40.92C110.521 42.6267 109.281 43.9733 107.575 44.96C105.868 45.9467 103.668 46.44 100.975 46.44H96.0148V39.96H100.975ZM114.263 29.52H122.623L122.983 32.64L122.623 36H114.263V29.52ZM122.193 29.52H130.553L130.913 32.64L130.553 36H122.193V29.52ZM130.122 29.52H138.482L138.842 32.64L138.482 36H130.122V29.52ZM138.052 29.52H146.412L146.772 32.64L146.412 36H138.052V29.52ZM155.942 28C155.942 29.7867 155.542 31.28 154.742 32.48C153.942 33.68 152.942 34.5733 151.742 35.16C150.568 35.72 149.408 36 148.262 36H145.982V29.52H147.942C148.688 29.52 149.248 29.3333 149.622 28.96C150.022 28.5867 150.222 28.0267 150.222 27.28V9.04H155.942V28Z" fill="#2B2B2B"/>
<circle cx="7.33332" cy="31.3333" r="7.33333" fill="#F13939"/>
</svg>
