<svg width="125" height="41" viewBox="0 0 125 41" fill="none" xmlns="http://www.w3.org/2000/svg">
<path d="M24.1815 31.1223C25.5062 31.1223 26.4838 31.0067 27.1146 30.7754C27.7454 30.5651 28.1659 30.1972 28.3762 29.6715C28.6074 29.1459 28.7231 28.3574 28.7231 27.3062V20.9985C28.7231 20.0523 28.5338 19.3164 28.1554 18.7908C27.798 18.2441 27.1672 17.9708 26.2631 17.9708C25.4431 17.9708 24.8333 18.2441 24.4338 18.7908C24.0554 19.3164 23.8662 19.9997 23.8662 20.8408C23.8662 21.5977 24.0554 22.1759 24.4338 22.5754C24.8123 22.9538 25.4326 23.1431 26.2946 23.1431H29.9846L31.4354 22.8908H34.9992L35.2515 25.4769L34.9992 28H26.2946C24.1921 28 22.5415 27.4008 21.3431 26.2023C20.1656 24.9828 19.5769 23.2903 19.5769 21.1246C19.5769 19.5477 19.8608 18.1705 20.4285 16.9931C20.9962 15.7946 21.7846 14.8695 22.7938 14.2177C23.8031 13.5659 24.9595 13.24 26.2631 13.24C27.6297 13.24 28.8387 13.5659 29.89 14.2177C30.9623 14.8485 31.7823 15.7631 32.35 16.9615C32.9387 18.16 33.2331 19.5477 33.2331 21.1246V27.3062C33.2331 29.0303 32.9282 30.5546 32.3185 31.8792C31.7087 33.2249 30.731 34.2867 29.3854 35.0646C28.0397 35.8426 26.3051 36.2315 24.1815 36.2315H20.2708V31.1223H24.1815ZM34.6587 22.8908H41.2503L41.5341 25.3508L41.2503 28H34.6587V22.8908ZM40.911 22.8908H47.5025L47.7864 25.3508L47.5025 28H40.911V22.8908ZM47.1632 22.8908H53.7548L54.0386 25.3508L53.7548 28H47.1632V22.8908ZM53.4155 22.8908H60.007L60.2909 25.3508L60.007 28H53.4155V22.8908ZM74.9639 9.8023L67.0793 13.3662L70.99 17.3715C72.2516 18.6751 72.9034 20.1785 72.9454 21.8815C72.9875 23.5636 72.4408 25.0038 71.3054 26.2023C70.17 27.4008 68.6352 28 66.7008 28H59.6677V22.8908H66.827C67.2685 22.8908 67.6049 22.7962 67.8362 22.6069C68.0885 22.3967 68.1936 22.1233 68.1516 21.7869C68.1306 21.4505 67.9623 21.1246 67.647 20.8092L62.1908 15.2269L63.2 9.58153L73.1662 5.13461L74.9639 9.8023ZM63.6416 5.92307L71.3685 2.54846L71.9993 4.15692L63.4523 7.87846L63.6416 5.92307ZM79.7434 31.1223C81.0681 31.1223 82.0458 31.0067 82.6765 30.7754C83.3073 30.5651 83.7278 30.1972 83.9381 29.6715C84.1693 29.1459 84.285 28.3574 84.285 27.3062V20.9985C84.285 20.0523 84.0958 19.3164 83.7173 18.7908C83.3599 18.2441 82.7291 17.9708 81.825 17.9708C81.005 17.9708 80.3952 18.2441 79.9958 18.7908C79.6173 19.3164 79.4281 19.9997 79.4281 20.8408C79.4281 21.5977 79.6173 22.1759 79.9958 22.5754C80.3742 22.9538 80.9945 23.1431 81.8565 23.1431H85.5465L86.9973 22.8908H90.5611L90.8134 25.4769L90.5611 28H81.8565C79.754 28 78.1034 27.4008 76.905 26.2023C75.7275 24.9828 75.1388 23.2903 75.1388 21.1246C75.1388 19.5477 75.4227 18.1705 75.9904 16.9931C76.5581 15.7946 77.3465 14.8695 78.3558 14.2177C79.365 13.5659 80.5214 13.24 81.825 13.24C83.1917 13.24 84.4006 13.5659 85.4519 14.2177C86.5242 14.8485 87.3442 15.7631 87.9119 16.9615C88.5006 18.16 88.795 19.5477 88.795 21.1246V27.3062C88.795 29.0303 88.4901 30.5546 87.8804 31.8792C87.2706 33.2249 86.2929 34.2867 84.9473 35.0646C83.6017 35.8426 81.867 36.2315 79.7434 36.2315H75.8327V31.1223H79.7434ZM90.2206 22.8908H96.8122L97.096 25.3508L96.8122 28H90.2206V22.8908ZM96.4729 22.8908H103.064L103.348 25.3508L103.064 28H96.4729V22.8908ZM102.725 22.8908H109.317L109.601 25.3508L109.317 28H102.725V22.8908ZM108.977 22.8908H115.569L115.853 25.3508L115.569 28H108.977V22.8908ZM123.083 21.6923C123.083 23.101 122.767 24.2785 122.137 25.2246C121.506 26.1708 120.717 26.8751 119.771 27.3377C118.846 27.7792 117.931 28 117.027 28H115.23V22.8908H116.775C117.364 22.8908 117.805 22.7436 118.1 22.4492C118.415 22.1549 118.573 21.7133 118.573 21.1246V6.74307H123.083V21.6923Z" fill="white"/>
<circle cx="5.91023" cy="24.7051" r="5.78205" fill="#F13939"/>
</svg>
