<svg width="84" height="30" viewBox="0 0 84 30" fill="none" xmlns="http://www.w3.org/2000/svg">
<path d="M20.9176 13.1078V19.5776C20.9176 21.0612 20.6576 22.346 20.1375 23.4319C19.6175 24.5178 18.8451 25.3438 17.8204 25.9097C16.7956 26.4909 15.5567 26.7815 14.1037 26.7815H12.6583V23.0648H14.1037C15.0367 23.0648 15.7479 22.9654 16.2373 22.7666C16.7421 22.5677 17.0938 22.2236 17.2927 21.7342C17.5068 21.2447 17.6139 20.5259 17.6139 19.5776V13.1078H20.9176ZM20.9176 16.4574C20.9176 16.7786 21.0017 17.0004 21.1699 17.1227C21.3535 17.2298 21.6441 17.2833 22.0418 17.2833H22.5465L22.6841 19.1646L22.5465 21H22.0418C21.6747 21 21.3305 20.9312 21.0093 20.7935C20.7034 20.6406 20.4434 20.4111 20.2293 20.1052C20.0305 19.7841 19.8928 19.3864 19.8163 18.9122L20.9176 16.4574ZM22.2891 17.2833H24.3998C24.9963 17.2833 25.4169 17.1839 25.6616 16.9851C25.9216 16.771 26.0364 16.4574 26.0058 16.0444C25.9905 15.6468 25.9216 15.0962 25.7993 14.3926C25.6922 13.6737 25.5775 12.9931 25.4551 12.3507L28.5294 11.5707C28.7283 12.366 28.9041 13.2149 29.0571 14.1173C29.2253 15.0044 29.3095 15.7462 29.3095 16.3427C29.3095 17.138 29.1336 17.8951 28.7818 18.614C28.4453 19.3176 27.9329 19.8911 27.2447 20.3347C26.5564 20.7782 25.7075 21 24.698 21H22.2891V17.2833ZM23.6656 23.7072C24.1704 23.6613 24.6828 23.6154 25.2028 23.5695C25.784 23.5237 26.3652 23.4778 26.9464 23.4319C26.9464 24.166 26.9464 24.7014 26.9464 25.0379C26.9464 25.3896 26.9464 25.9173 26.9464 26.6209C26.4111 26.6668 25.8834 26.7126 25.3634 26.7585C24.8433 26.8044 24.2774 26.8503 23.6656 26.8962C23.6656 26.1773 23.6656 25.642 23.6656 25.2902C23.6656 24.9384 23.6656 24.4108 23.6656 23.7072ZM34.7651 23.2713C35.7287 23.2713 36.4399 23.1872 36.8987 23.0189C37.3576 22.866 37.6635 22.5983 37.8164 22.2159C37.9847 21.8336 38.0688 21.26 38.0688 20.4953V15.9068C38.0688 15.2185 37.9311 14.6832 37.6558 14.3008C37.3958 13.9032 36.937 13.7043 36.2793 13.7043C35.6828 13.7043 35.2392 13.9032 34.9486 14.3008C34.6733 14.6832 34.5357 15.1803 34.5357 15.7921C34.5357 16.3427 34.6733 16.7633 34.9486 17.0539C35.2239 17.3292 35.6751 17.4669 36.3022 17.4669H38.9865L40.0418 17.2833H42.6343L42.8179 19.1646L42.6343 21H36.3022C34.7727 21 33.5721 20.5641 32.7003 19.6923C31.8438 18.8052 31.4155 17.5739 31.4155 15.9986C31.4155 14.8514 31.622 13.8496 32.0349 12.9931C32.4479 12.1213 33.0215 11.4483 33.7556 10.9742C34.4898 10.5 35.331 10.263 36.2793 10.263C37.2735 10.263 38.1529 10.5 38.9177 10.9742C39.6977 11.433 40.2942 12.0984 40.7072 12.9702C41.1354 13.842 41.3495 14.8514 41.3495 15.9986V20.4953C41.3495 21.7495 41.1278 22.8583 40.6842 23.8219C40.2407 24.8008 39.5295 25.5732 38.5506 26.1391C37.5717 26.705 36.3099 26.988 34.7651 26.988H31.9202V23.2713H34.7651ZM49.8888 13.1078V16.4574C49.8888 16.7786 49.9805 17.0004 50.1641 17.1227C50.3476 17.2298 50.6382 17.2833 51.0359 17.2833H52.2977L52.4354 19.2334L52.2977 21H51.0359C50.3629 21 49.6823 20.8394 48.994 20.5182C48.321 20.1817 47.7551 19.6693 47.2963 18.9811C46.8374 18.2928 46.608 17.4363 46.608 16.4115V13.1078H49.8888ZM49.8429 16.4804C49.8429 17.398 49.6135 18.201 49.1546 18.8893C48.7111 19.5623 48.1222 20.0823 47.388 20.4494C46.6539 20.8165 45.8815 21 45.0709 21H42.3866V17.2833H45.0709C45.6521 17.2833 46.0497 17.2222 46.2639 17.0998C46.4933 16.9774 46.608 16.748 46.608 16.4115L49.8429 16.4804ZM43.4878 23.8449C43.9161 23.8143 44.2296 23.7837 44.4285 23.7531C44.6426 23.7378 44.9562 23.7148 45.3691 23.6843C45.7515 23.6384 46.1262 23.6001 46.4933 23.5695C46.5239 23.9213 46.5468 24.2578 46.5621 24.579C46.5774 24.9002 46.5774 25.2214 46.5621 25.5426C46.5468 25.8332 46.5239 26.1391 46.4933 26.4603C45.805 26.5215 45.2926 26.5597 44.9562 26.575C44.635 26.6056 44.1455 26.6515 43.4878 26.7126C43.4878 26.055 43.4878 25.5655 43.4878 25.2443C43.4878 24.9384 43.4878 24.4719 43.4878 23.8449ZM46.4933 23.5695C47.151 23.5084 47.6404 23.4625 47.9616 23.4319C48.2981 23.4166 48.7952 23.3784 49.4529 23.3172C49.4529 23.9749 49.4529 24.4566 49.4529 24.7625C49.4529 25.0837 49.4529 25.5655 49.4529 26.2079C48.7799 26.2691 48.2752 26.3073 47.9387 26.3226C47.6175 26.3532 47.1357 26.3991 46.4933 26.4603C46.4627 26.2309 46.4321 25.9173 46.4015 25.5196C46.4015 25.2137 46.4092 24.9002 46.4245 24.579C46.4398 24.2578 46.4627 23.9213 46.4933 23.5695ZM59.5676 13.1078V16.4574C59.5676 16.7786 59.6593 17.0004 59.8429 17.1227C60.0264 17.2298 60.317 17.2833 60.7147 17.2833H61.9765L62.1142 19.2334L61.9765 21H60.7147C60.0417 21 59.3611 20.8394 58.6728 20.5182C57.9998 20.1817 57.4339 19.6693 56.9751 18.9811C56.5162 18.2928 56.2868 17.4363 56.2868 16.4115V13.1078H59.5676ZM59.5217 16.4804C59.5217 17.398 59.2923 18.201 58.8334 18.8893C58.3899 19.5623 57.801 20.0823 57.0669 20.4494C56.3327 20.8165 55.5603 21 54.7497 21H52.0654V17.2833H54.7497C55.3309 17.2833 55.7286 17.2222 55.9427 17.0998C56.1721 16.9774 56.2868 16.748 56.2868 16.4115L59.5217 16.4804ZM53.1667 7.76225C53.5949 7.73166 53.9085 7.70872 54.1073 7.69343C54.3214 7.66284 54.635 7.63225 55.0479 7.60166C55.4303 7.55577 55.805 7.51754 56.1721 7.48695C56.2027 7.83873 56.2256 8.17522 56.2409 8.49641C56.2562 8.8176 56.2562 9.1388 56.2409 9.45999C56.2256 9.75059 56.2027 10.0565 56.1721 10.3777C55.4838 10.4389 54.9715 10.4847 54.635 10.5153C54.3138 10.5306 53.8243 10.5689 53.1667 10.6301C53.1667 9.97237 53.1667 9.49058 53.1667 9.18468C53.1667 8.86349 53.1667 8.38935 53.1667 7.76225ZM56.1721 7.48695C56.8298 7.42577 57.3192 7.38753 57.6404 7.37223C57.9769 7.34164 58.474 7.29576 59.1317 7.23458C59.1317 7.89226 59.1317 8.3817 59.1317 8.70289C59.1317 9.00879 59.1317 9.48293 59.1317 10.1253C58.4587 10.1865 57.954 10.2324 57.6175 10.263C57.2963 10.2783 56.8145 10.3165 56.1721 10.3777C56.1415 10.1483 56.1109 9.83472 56.0803 9.43705C56.0803 9.13115 56.088 8.8176 56.1033 8.49641C56.1186 8.17522 56.1415 7.83873 56.1721 7.48695ZM72.8025 7.18869L66.6539 9.89589L69.384 13.2684C70.21 14.3085 70.6382 15.4403 70.6688 16.6639C70.6994 17.8722 70.3247 18.8969 69.5446 19.7382C68.7646 20.5794 67.671 21 66.2639 21H61.7442V17.2833H66.3556C66.6615 17.2833 66.8986 17.2145 67.0669 17.0769C67.2504 16.9392 67.3269 16.7557 67.2963 16.5262C67.281 16.2815 67.1586 16.0292 66.9292 15.7691L63.0978 11.2724L63.832 7.14281L71.4718 3.79322L72.8025 7.18869ZM74.6608 19.0728L74.4543 21H74.1102C73.3148 21 72.6036 20.8318 71.9765 20.4953C71.3647 20.1588 70.7529 19.677 70.1411 19.0499C69.5293 18.4075 68.5887 17.3369 67.3192 15.838L66.9292 15.3562L69.384 13.2684L69.8199 13.819C70.6 14.7826 71.1888 15.4862 71.5865 15.9297C71.9842 16.358 72.3818 16.6945 72.7795 16.9392C73.1772 17.1686 73.6207 17.2833 74.1102 17.2833H74.4543L74.6608 19.0728ZM74.2007 17.2833H76.5408C77.1832 17.2833 77.6344 17.1763 77.8944 16.9621C78.1697 16.748 78.2921 16.4421 78.2615 16.0444C78.2309 15.6162 78.1544 15.0579 78.0321 14.3697C77.925 13.6661 77.8103 12.9931 77.6879 12.3507L80.7622 11.5707C80.961 12.366 81.1369 13.2149 81.2899 14.1173C81.4581 15.0044 81.5422 15.7462 81.5422 16.3427C81.5575 17.138 81.3893 17.8951 81.0375 18.614C80.6857 19.3176 80.1581 19.8911 79.4545 20.3347C78.7509 20.7782 77.8868 21 76.862 21H74.2007V17.2833ZM73.4665 23.8449C73.8948 23.8143 74.2083 23.7837 74.4072 23.7531C74.6213 23.7378 74.9348 23.7148 75.3478 23.6843C75.7302 23.6384 76.1049 23.6001 76.472 23.5695C76.5026 23.9213 76.5255 24.2578 76.5408 24.579C76.5561 24.9002 76.5561 25.2214 76.5408 25.5426C76.5255 25.8332 76.5026 26.1391 76.472 26.4603C75.7837 26.5215 75.2713 26.5597 74.9348 26.575C74.6136 26.6056 74.1242 26.6515 73.4665 26.7126C73.4665 26.055 73.4665 25.5655 73.4665 25.2443C73.4665 24.9384 73.4665 24.4719 73.4665 23.8449ZM76.472 23.5695C77.1297 23.5084 77.6191 23.4625 77.9403 23.4319C78.2768 23.4166 78.7739 23.3784 79.4315 23.3172C79.4315 23.9749 79.4315 24.4566 79.4315 24.7625C79.4315 25.0837 79.4315 25.5655 79.4315 26.2079C78.7586 26.2691 78.2538 26.3073 77.9173 26.3226C77.5962 26.3532 77.1144 26.3991 76.472 26.4603C76.4414 26.2309 76.4108 25.9173 76.3802 25.5196C76.3802 25.2137 76.3879 24.9002 76.4031 24.579C76.4184 24.2578 76.4414 23.9213 76.472 23.5695Z" fill="white"/>
<ellipse cx="4.22634" cy="17.9717" rx="4.22634" ry="4.2061" fill="#F13939"/>
</svg>
